<svg xmlns="http://www.w3.org/2000/svg" xmlns:xlink="http://www.w3.org/1999/xlink" viewBox="0 0 135 135.000003"
     version="1.0">
    <path fill="#7ed3f7"
          d="M 67.277344 105.351562 L 23.34375 61.421875 C 22.644531 60.71875 21.980469 59.984375 21.359375 59.210938 C 20.738281 58.4375 20.15625 57.636719 19.621094 56.800781 C 19.085938 55.964844 18.597656 55.105469 18.15625 54.214844 C 17.714844 53.328125 17.324219 52.417969 16.980469 51.488281 C 16.636719 50.558594 16.34375 49.613281 16.101562 48.648438 C 15.863281 47.6875 15.671875 46.714844 15.539062 45.734375 C 15.402344 44.75 15.320312 43.765625 15.289062 42.773438 C 15.261719 41.78125 15.285156 40.792969 15.363281 39.804688 C 15.441406 38.816406 15.574219 37.832031 15.757812 36.859375 C 15.941406 35.882812 16.179688 34.921875 16.46875 33.972656 C 16.753906 33.027344 17.09375 32.09375 17.484375 31.183594 C 17.875 30.269531 18.308594 29.382812 18.796875 28.519531 C 19.28125 27.652344 19.8125 26.816406 20.386719 26.007812 C 20.964844 25.203125 21.582031 24.429688 22.242188 23.6875 C 22.902344 22.949219 23.597656 22.246094 24.335938 21.578125 C 25.070312 20.914062 25.839844 20.292969 26.644531 19.710938 C 27.445312 19.128906 28.277344 18.59375 29.140625 18.101562 C 30 17.609375 30.886719 17.164062 31.796875 16.769531 C 32.703125 16.375 33.632812 16.027344 34.578125 15.734375 C 35.527344 15.4375 36.488281 15.195312 37.460938 15.003906 C 38.433594 14.8125 39.414062 14.675781 40.402344 14.589844 C 41.390625 14.503906 42.378906 14.472656 43.371094 14.496094 C 44.363281 14.515625 45.347656 14.589844 46.332031 14.71875 C 47.316406 14.847656 48.289062 15.03125 49.253906 15.265625 C 50.214844 15.5 51.164062 15.785156 52.097656 16.121094 C 53.03125 16.457031 53.941406 16.84375 54.832031 17.28125 C 55.722656 17.714844 56.589844 18.199219 57.425781 18.726562 C 58.265625 19.257812 59.074219 19.828125 59.851562 20.445312 C 60.625 21.0625 61.367188 21.71875 62.074219 22.417969 C 62.777344 23.113281 63.445312 23.847656 64.070312 24.617188 C 64.699219 25.382812 65.28125 26.183594 65.820312 27.015625 C 66.359375 27.847656 66.851562 28.707031 67.300781 29.59375 C 67.542969 29.109375 67.800781 28.632812 68.074219 28.167969 C 68.34375 27.699219 68.628906 27.238281 68.929688 26.789062 C 69.230469 26.335938 69.542969 25.894531 69.867188 25.460938 C 70.191406 25.027344 70.53125 24.605469 70.878906 24.191406 C 71.230469 23.78125 71.59375 23.378906 71.964844 22.988281 C 72.339844 22.59375 72.726562 22.214844 73.121094 21.847656 C 73.519531 21.476562 73.925781 21.121094 74.34375 20.777344 C 74.761719 20.433594 75.1875 20.101562 75.625 19.78125 C 76.0625 19.460938 76.507812 19.15625 76.964844 18.863281 C 77.421875 18.570312 77.882812 18.292969 78.355469 18.027344 C 78.828125 17.761719 79.308594 17.507812 79.792969 17.273438 C 80.28125 17.035156 80.773438 16.8125 81.273438 16.605469 C 81.773438 16.398438 82.277344 16.203125 82.789062 16.027344 C 83.300781 15.847656 83.816406 15.683594 84.339844 15.539062 C 84.859375 15.390625 85.382812 15.257812 85.914062 15.140625 C 86.441406 15.023438 86.972656 14.925781 87.507812 14.839844 C 88.042969 14.753906 88.578125 14.683594 89.117188 14.632812 C 89.65625 14.578125 90.195312 14.539062 90.738281 14.519531 C 91.277344 14.496094 91.820312 14.492188 92.359375 14.503906 C 92.902344 14.511719 93.441406 14.539062 93.980469 14.582031 C 94.523438 14.625 95.058594 14.683594 95.597656 14.757812 C 96.132812 14.832031 96.667969 14.921875 97.195312 15.027344 C 97.726562 15.132812 98.253906 15.253906 98.777344 15.390625 C 99.304688 15.527344 99.820312 15.679688 100.335938 15.847656 C 100.851562 16.015625 101.359375 16.199219 101.863281 16.398438 C 102.367188 16.59375 102.867188 16.808594 103.359375 17.035156 C 103.847656 17.261719 104.332031 17.503906 104.808594 17.761719 C 105.289062 18.015625 105.757812 18.285156 106.21875 18.570312 C 106.679688 18.851562 107.132812 19.148438 107.574219 19.460938 C 108.019531 19.769531 108.453125 20.09375 108.875 20.429688 C 109.300781 20.765625 109.714844 21.113281 110.121094 21.476562 C 110.523438 21.835938 110.917969 22.207031 111.296875 22.589844 C 112.574219 23.863281 113.710938 25.246094 114.707031 26.746094 C 115.707031 28.242188 116.550781 29.824219 117.234375 31.488281 C 117.917969 33.152344 118.433594 34.871094 118.773438 36.636719 C 119.117188 38.40625 119.285156 40.1875 119.273438 41.988281 C 119.28125 43.792969 119.113281 45.582031 118.765625 47.355469 C 118.417969 49.125 117.898438 50.847656 117.207031 52.515625 C 116.515625 54.183594 115.667969 55.765625 114.664062 57.265625 C 113.65625 58.765625 112.511719 60.148438 111.230469 61.421875 Z M 67.277344 105.351562 "
          fill-opacity="1" fill-rule="nonzero"/>
    <path fill="#007dc3"
          d="M 110.730469 73.011719 L 67.265625 29.59375 L 23.78125 73.035156 C 22.828125 73.980469 21.953125 74.988281 21.152344 76.0625 C 20.351562 77.136719 19.636719 78.265625 19 79.445312 C 18.367188 80.625 17.824219 81.84375 17.371094 83.105469 C 16.914062 84.367188 16.558594 85.652344 16.292969 86.96875 C 16.03125 88.28125 15.867188 89.605469 15.796875 90.945312 C 15.730469 92.285156 15.761719 93.621094 15.894531 94.953125 C 16.023438 96.285156 16.25 97.601562 16.574219 98.902344 C 16.902344 100.203125 17.320312 101.472656 17.832031 102.710938 C 18.34375 103.949219 18.945312 105.140625 19.636719 106.289062 C 20.324219 107.4375 21.09375 108.53125 21.945312 109.566406 C 22.796875 110.601562 23.71875 111.570312 24.710938 112.46875 C 25.707031 113.367188 26.761719 114.1875 27.875 114.929688 C 28.992188 115.671875 30.152344 116.328125 31.367188 116.902344 C 32.578125 117.472656 33.828125 117.949219 35.109375 118.335938 C 36.390625 118.722656 37.695312 119.011719 39.023438 119.207031 C 40.347656 119.398438 41.679688 119.492188 43.019531 119.488281 C 44.25 119.503906 45.476562 119.433594 46.699219 119.285156 C 47.917969 119.132812 49.125 118.898438 50.3125 118.585938 C 51.503906 118.273438 52.667969 117.878906 53.804688 117.410156 C 54.941406 116.9375 56.039062 116.390625 57.101562 115.773438 C 58.164062 115.152344 59.183594 114.464844 60.152344 113.707031 C 61.121094 112.949219 62.035156 112.132812 62.894531 111.253906 C 63.753906 110.371094 64.550781 109.4375 65.285156 108.449219 C 66.019531 107.460938 66.683594 106.429688 67.277344 105.351562 C 71.339844 113.582031 79.5625 118.574219 91.320312 119.421875 C 91.902344 119.46875 92.480469 119.488281 93.0625 119.488281 C 94.695312 119.476562 96.308594 119.304688 97.910156 118.972656 C 99.507812 118.640625 101.058594 118.15625 102.558594 117.515625 C 104.0625 116.875 105.484375 116.09375 106.832031 115.167969 C 108.179688 114.246094 109.421875 113.199219 110.5625 112.03125 C 111.851562 110.726562 113.003906 109.3125 114.015625 107.785156 C 115.03125 106.257812 115.886719 104.644531 116.582031 102.953125 C 117.28125 101.257812 117.808594 99.507812 118.164062 97.710938 C 118.523438 95.914062 118.699219 94.097656 118.703125 92.265625 C 118.707031 90.476562 118.535156 88.703125 118.1875 86.949219 C 117.839844 85.195312 117.324219 83.492188 116.640625 81.839844 C 115.957031 80.1875 115.117188 78.617188 114.121094 77.132812 C 113.128906 75.648438 111.996094 74.273438 110.730469 73.011719 Z M 106.429688 107.910156 C 105.558594 108.808594 104.609375 109.613281 103.578125 110.324219 C 102.546875 111.035156 101.457031 111.640625 100.308594 112.132812 C 99.15625 112.625 97.96875 113 96.742188 113.257812 C 95.519531 113.515625 94.28125 113.648438 93.027344 113.660156 C 92.59375 113.660156 92.144531 113.660156 91.710938 113.660156 C 81.3125 112.914062 74.46875 108.433594 71.609375 100.941406 L 67.144531 105.40625 L 62.875 100.953125 C 62.453125 101.902344 61.960938 102.816406 61.402344 103.695312 C 60.847656 104.574219 60.226562 105.410156 59.546875 106.199219 C 58.867188 106.984375 58.136719 107.71875 57.347656 108.402344 C 56.5625 109.082031 55.726562 109.703125 54.851562 110.261719 C 53.972656 110.820312 53.058594 111.3125 52.109375 111.738281 C 51.160156 112.164062 50.183594 112.519531 49.183594 112.804688 C 48.179688 113.085938 47.164062 113.296875 46.128906 113.429688 C 45.097656 113.5625 44.0625 113.621094 43.019531 113.605469 C 41.972656 113.605469 40.925781 113.527344 39.886719 113.375 C 38.847656 113.222656 37.824219 112.992188 36.820312 112.6875 C 35.816406 112.382812 34.835938 112.003906 33.886719 111.558594 C 32.9375 111.109375 32.027344 110.59375 31.152344 110.007812 C 30.277344 109.425781 29.453125 108.78125 28.675781 108.074219 C 27.894531 107.371094 27.171875 106.613281 26.507812 105.800781 C 25.839844 104.988281 25.234375 104.132812 24.695312 103.230469 C 24.15625 102.332031 23.683594 101.394531 23.28125 100.425781 C 22.878906 99.453125 22.550781 98.460938 22.292969 97.441406 C 22.039062 96.421875 21.859375 95.390625 21.753906 94.34375 C 21.652344 93.300781 21.625 92.253906 21.675781 91.203125 C 21.726562 90.152344 21.855469 89.113281 22.058594 88.082031 C 22.265625 87.054688 22.542969 86.042969 22.898438 85.054688 C 23.25 84.066406 23.675781 83.105469 24.167969 82.179688 C 24.664062 81.253906 25.222656 80.367188 25.847656 79.523438 C 26.472656 78.679688 27.160156 77.886719 27.902344 77.144531 L 67.265625 37.824219 L 106.585938 77.132812 C 107.582031 78.125 108.472656 79.203125 109.253906 80.371094 C 110.039062 81.539062 110.699219 82.773438 111.238281 84.070312 C 111.773438 85.371094 112.179688 86.707031 112.453125 88.085938 C 112.726562 89.464844 112.863281 90.859375 112.863281 92.265625 C 112.863281 93.714844 112.722656 95.152344 112.441406 96.574219 C 112.160156 98 111.746094 99.382812 111.191406 100.722656 C 110.640625 102.066406 109.964844 103.339844 109.164062 104.550781 C 108.363281 105.757812 107.449219 106.878906 106.429688 107.910156 Z M 106.429688 107.910156 "
          fill-opacity="1" fill-rule="nonzero"/>
</svg>